<svg xmlns="http://www.w3.org/2000/svg" viewBox="0 0 512 512" width="512" height="512">
  <defs>
    <linearGradient id="tile" x1="0%" y1="0%" x2="100%" y2="100%">
      <stop offset="0%" stop-color="#1a365d"/>
      <stop offset="52%" stop-color="#9a7a1f"/>
      <stop offset="100%" stop-color="#0f172a"/>
    </linearGradient>
    <filter id="shadow" x="-10%" y="-10%" width="120%" height="120%">
      <feDropShadow dx="0" dy="8" stdDeviation="16" flood-color="#1a365d" flood-opacity="0.35"/>
    </filter>
  </defs>
  <rect x="32" y="32" width="448" height="448" rx="135" fill="url(#tile)" filter="url(#shadow)"/>
  <rect x="32" y="32" width="448" height="448" rx="135" fill="none" stroke="rgba(255,255,255,0.15)" stroke-width="2"/>
  <g transform="translate(256, 256)" fill="none" stroke="#ffffff" stroke-width="20" stroke-linecap="round" stroke-linejoin="round">
    <line x1="0" y1="-130" x2="0" y2="130"/>
    <line x1="-80" y1="130" x2="80" y2="130"/>
    <path d="M -120 -60 C -80 -60, -40 -90, 0 -110 C 40 -90, 80 -60, 120 -60"/>
    <line x1="-130" y1="-60" x2="-110" y2="-60"/>
    <line x1="110" y1="-60" x2="130" y2="-60"/>
    <path d="M -120 -60 L -150 30 C -130 15, -110 15, -90 30 Z"/>
    <path d="M 120 -60 L 150 30 C 130 15, 110 15, 90 30 Z"/>
  </g>
</svg>
